<svg xmlns="http://www.w3.org/2000/svg" viewBox="0 0 48 48" fill="none" stroke="currentColor" stroke-width="2.25" stroke-linecap="round" stroke-linejoin="round"><path d="M12.8 7.8L13.6 8.2L13.6 35.4L12.8 35.1L12.8 7.8L18.9 4.8L19.6 5.2L13.6 8.2M13.2 8L29.1 16L29.1 43.2L24.3 40.8L13.2 35.3L13.2 8L14 7.6L16.4 8.8L29.9 15.6L29.1 16M16.3 16.1L25.9 20.9M17.9 20.1L24.3 23.3M19.3 6.7L25.9 10M25.7 9L18.5 5.4L19.3 5L26 8.4M26.1 11.9L26.1 6.6L27.6 8.9L29.1 8.1L29.1 13.4M29.1 43.2L29.9 42.8L29.9 15.6M29.2 11.6L33.5 13.7L29.9 15.5M29.4 10L35.2 12.9L34.4 13.3M29.9 40.9L33.5 39.2L33.5 13.7M30.4 39.7L30.4 16.4M32.1 38.9L32.1 15.5M33 39.8L34.4 40.6L34.4 13.3L29.1 10.7M34.4 40.6L35.2 40.2L35.2 12.9"/></svg>
