<svg xmlns="http://www.w3.org/2000/svg" viewBox="0 0 48 48" fill="none" stroke="currentColor" stroke-width="2.25" stroke-linecap="round" stroke-linejoin="round"><path d="M10.6 22.1L38.2 25.8M17 26.8L15.2 34.1M19.8 23.4L21.5 16.1M26.2 28L24.4 35.3M29 24.6L30.8 17.3M30.9 14.9L10.3 12.1L4.8 35.2L8 35.7L37.7 39.6L43.2 16.5L37.4 15.7M32.5 16.3L34.5 21.6L36.6 16.3M32.7 17.6L12.3 14.8L8 33.1L13.3 33.8L35.6 36.8L40 18.5L36 18M33.4 16.3L32.5 16L31 14.5L30.4 12.4L31 10.3L31.8 9.4L34.5 8.4L37.2 9.4L38 10.3L38.6 12.4L38 14.5L36.6 16L35.6 16.3M9.7 25.8L37.4 29.5"/></svg>
